<svg xmlns="http://www.w3.org/2000/svg" viewBox="0 0 511.999 511.999"><path d="M255.998 0C155.086 0 72.988 82.098 72.988 183.01c0 41.433 29.079 107.172 86.431 195.392 41.902 64.455 84.401 118.228 84.826 118.763l11.754 14.834 11.754-14.834c.425-.536 42.924-54.308 84.826-118.763 57.351-88.219 86.431-153.959 86.431-195.392C439.009 82.098 356.91 0 255.998 0zm-.001 463.408C204.369 395.8 102.98 249.337 102.98 183.01c0-84.374 68.644-153.018 153.018-153.018S409.017 98.636 409.017 183.01c0 66.293-101.391 212.777-153.02 280.398z"/><path d="M255.998 71.981c-58.984 0-106.971 47.987-106.971 106.971s47.987 106.971 106.971 106.971 106.971-47.987 106.971-106.971c.001-58.984-47.986-106.971-106.971-106.971zm0 183.951c-42.447 0-76.979-34.533-76.979-76.979s34.533-76.979 76.979-76.979c42.447 0 76.979 34.533 76.979 76.979s-34.532 76.979-76.979 76.979z"/></svg>