<svg xmlns="http://www.w3.org/2000/svg" viewBox="0 0 512 512"><path d="M504 496h-48V264h8a8 8 0 008-8v-48a8 8 0 00-8-8H320V8a8 8 0 00-8-8H168a8 8 0 00-8 8v72H48a8 8 0 00-8 8v408H8a8 8 0 000 16h496a8 8 0 000-16zm-320 0H56V96h128v400zm112 0h-96V88a8 8 0 00-8-8h-16V16h128v184h-16a8 8 0 00-8 8v48a8 8 0 008 8h8v232zm0-280h160v32H296v-32zm144 280H312V264h128v232z"/><path d="M112 104v16a8 8 0 0016 0v-16a8 8 0 00-16 0zm8 40a8 8 0 00-8 8v32a8 8 0 0016 0v-32a8 8 0 00-8-8zm0 64a8 8 0 00-8 8v32a8 8 0 0016 0v-32a8 8 0 00-8-8zm0 192a8 8 0 00-8 8v32a8 8 0 0016 0v-32a8 8 0 00-8-8zm0-64a8 8 0 00-8 8v32a8 8 0 0016 0v-32a8 8 0 00-8-8zm0-64a8 8 0 00-8 8v32a8 8 0 0016 0v-32a8 8 0 00-8-8zm8 216v-16a8 8 0 00-16 0v16a8 8 0 0016 0zM72 104v16a8 8 0 0016 0v-16a8 8 0 00-16 0zm8 232a8 8 0 00-8 8v32a8 8 0 0016 0v-32a8 8 0 00-8-8zm0-64a8 8 0 00-8 8v32a8 8 0 0016 0v-32a8 8 0 00-8-8zm0-64a8 8 0 00-8 8v32a8 8 0 0016 0v-32a8 8 0 00-8-8zm0 192a8 8 0 00-8 8v32a8 8 0 0016 0v-32a8 8 0 00-8-8zm0-256a8 8 0 00-8 8v32a8 8 0 0016 0v-32a8 8 0 00-8-8zm8 344v-16a8 8 0 00-16 0v16a8 8 0 0016 0zm64-384v16a8 8 0 0016 0v-16a8 8 0 00-16 0zm8 168a8 8 0 00-8 8v32a8 8 0 0016 0v-32a8 8 0 00-8-8zm0-128a8 8 0 00-8 8v32a8 8 0 0016 0v-32a8 8 0 00-8-8zm0 192a8 8 0 00-8 8v32a8 8 0 0016 0v-32a8 8 0 00-8-8zm0-128a8 8 0 00-8 8v32a8 8 0 0016 0v-32a8 8 0 00-8-8zm0 192a8 8 0 00-8 8v32a8 8 0 0016 0v-32a8 8 0 00-8-8zm8 88v-16a8 8 0 00-16 0v16a8 8 0 0016 0zm208-184a8 8 0 008-8v-16a8 8 0 00-16 0v16a8 8 0 008 8zm0 70.4a8 8 0 008-8v-35.2a8 8 0 00-16 0v35.2a8 8 0 008 8zm0 70.4a8 8 0 008-8v-35.2a8 8 0 00-16 0v35.2a8 8 0 008 8zm8 43.2v-16a8 8 0 00-16 0v16a8 8 0 0016 0zm32-184a8 8 0 008-8v-16a8 8 0 00-16 0v16a8 8 0 008 8zm0 140.8a8 8 0 008-8v-35.2a8 8 0 00-16 0v35.2a8 8 0 008 8zm0-70.4a8 8 0 008-8v-35.2a8 8 0 00-16 0v35.2a8 8 0 008 8zm8 113.6v-16a8 8 0 00-16 0v16a8 8 0 0016 0zm-88-184a8 8 0 008-8v-16a8 8 0 00-16 0v16a8 8 0 008 8zm0 70.4a8 8 0 008-8v-35.2a8 8 0 00-16 0v35.2a8 8 0 008 8zm0 70.4a8 8 0 008-8v-35.2a8 8 0 00-16 0v35.2a8 8 0 008 8zm8 43.2v-16a8 8 0 00-16 0v16a8 8 0 0016 0zM264 24a8 8 0 00-8 8v16a8 8 0 0016 0V32a8 8 0 00-8-8zm0 240a8 8 0 00-8 8v32a8 8 0 0016 0v-32a8 8 0 00-8-8zm0-64a8 8 0 00-8 8v32a8 8 0 0016 0v-32a8 8 0 00-8-8zm0 128a8 8 0 00-8 8v32a8 8 0 0016 0v-32a8 8 0 00-8-8zm0-256a8 8 0 00-8 8v32a8 8 0 0016 0V80a8 8 0 00-8-8zm0 64a8 8 0 00-8 8v32a8 8 0 0016 0v-32a8 8 0 00-8-8zm0 256a8 8 0 00-8 8v16a8 8 0 0016 0v-16a8 8 0 00-8-8zM216 24a8 8 0 00-8 8v16a8 8 0 0016 0V32a8 8 0 00-8-8zm0 48a8 8 0 00-8 8v32a8 8 0 0016 0V80a8 8 0 00-8-8zm0 256a8 8 0 00-8 8v32a8 8 0 0016 0v-32a8 8 0 00-8-8zm0-64a8 8 0 00-8 8v32a8 8 0 0016 0v-32a8 8 0 00-8-8zm0-64a8 8 0 00-8 8v32a8 8 0 0016 0v-32a8 8 0 00-8-8zm0-64a8 8 0 00-8 8v32a8 8 0 0016 0v-32a8 8 0 00-8-8zm0 256a8 8 0 00-8 8v16a8 8 0 0016 0v-16a8 8 0 00-8-8z"/></svg>