<svg version="1.1" xmlns="http://www.w3.org/2000/svg" xmlns:xlink="http://www.w3.org/1999/xlink" x="0px" y="0px"
	 viewBox="0 0 512 512" style="enable-background:new 0 0 512 512;" xml:space="preserve">
	<path d="M504,496h-48V264h8c4.418,0,8-3.582,8-8v-48c0-4.418-3.582-8-8-8H320V8c0-4.418-3.582-8-8-8H168c-4.418,0-8,3.582-8,8v72
		H48c-4.418,0-8,3.582-8,8v408H8c-4.418,0-8,3.582-8,8s3.582,8,8,8h496c4.418,0,8-3.582,8-8S508.418,496,504,496z M184,496h-24
		h-40H80H56V96h24h40h40h24V496z M296,496h-96V88c0-4.418-3.582-8-8-8h-16V16h128v184h-16c-4.418,0-8,3.582-8,8v48
		c0,4.418,3.582,8,8,8h8V496z M296,216h160v32H296V216z M440,496h-24h-40h-40h-24V264h128V496z"/>
	<path d="M112,104v16c0,4.418,3.582,8,8,8s8-3.582,8-8v-16c0-4.418-3.582-8-8-8S112,99.582,112,104z"/>
	<path d="M120,144c-4.418,0-8,3.582-8,8v32c0,4.418,3.582,8,8,8s8-3.582,8-8v-32C128,147.582,124.418,144,120,144z"/>
	<path d="M120,208c-4.418,0-8,3.582-8,8v32c0,4.418,3.582,8,8,8s8-3.582,8-8v-32C128,211.582,124.418,208,120,208z"/>
	<path d="M120,400c-4.418,0-8,3.582-8,8v32c0,4.418,3.582,8,8,8s8-3.582,8-8v-32C128,403.582,124.418,400,120,400z"/>
	<path d="M120,336c-4.418,0-8,3.582-8,8v32c0,4.418,3.582,8,8,8s8-3.582,8-8v-32C128,339.582,124.418,336,120,336z"/>
	<path d="M120,272c-4.418,0-8,3.582-8,8v32c0,4.418,3.582,8,8,8s8-3.582,8-8v-32C128,275.582,124.418,272,120,272z"/>
	<path d="M128,488v-16c0-4.418-3.582-8-8-8s-8,3.582-8,8v16c0,4.418,3.582,8,8,8S128,492.418,128,488z"/>
	<path d="M72,104v16c0,4.418,3.582,8,8,8s8-3.582,8-8v-16c0-4.418-3.582-8-8-8S72,99.582,72,104z"/>
	<path d="M80,336c-4.418,0-8,3.582-8,8v32c0,4.418,3.582,8,8,8s8-3.582,8-8v-32C88,339.582,84.418,336,80,336z"/>
	<path d="M80,272c-4.418,0-8,3.582-8,8v32c0,4.418,3.582,8,8,8s8-3.582,8-8v-32C88,275.582,84.418,272,80,272z"/>
	<path d="M80,208c-4.418,0-8,3.582-8,8v32c0,4.418,3.582,8,8,8s8-3.582,8-8v-32C88,211.582,84.418,208,80,208z"/>
	<path d="M80,400c-4.418,0-8,3.582-8,8v32c0,4.418,3.582,8,8,8s8-3.582,8-8v-32C88,403.582,84.418,400,80,400z"/>
	<path d="M80,144c-4.418,0-8,3.582-8,8v32c0,4.418,3.582,8,8,8s8-3.582,8-8v-32C88,147.582,84.418,144,80,144z"/>
	<path d="M88,488v-16c0-4.418-3.582-8-8-8s-8,3.582-8,8v16c0,4.418,3.582,8,8,8S88,492.418,88,488z"/>
	<path d="M152,104v16c0,4.418,3.582,8,8,8s8-3.582,8-8v-16c0-4.418-3.582-8-8-8S152,99.582,152,104z"/>
	<path d="M160,272c-4.418,0-8,3.582-8,8v32c0,4.418,3.582,8,8,8s8-3.582,8-8v-32C168,275.582,164.418,272,160,272z"/>
	<path d="M160,144c-4.418,0-8,3.582-8,8v32c0,4.418,3.582,8,8,8s8-3.582,8-8v-32C168,147.582,164.418,144,160,144z"/>
	<path d="M160,336c-4.418,0-8,3.582-8,8v32c0,4.418,3.582,8,8,8s8-3.582,8-8v-32C168,339.582,164.418,336,160,336z"/>
	<path d="M160,208c-4.418,0-8,3.582-8,8v32c0,4.418,3.582,8,8,8s8-3.582,8-8v-32C168,211.582,164.418,208,160,208z"/>
	<path d="M160,400c-4.418,0-8,3.582-8,8v32c0,4.418,3.582,8,8,8s8-3.582,8-8v-32C168,403.582,164.418,400,160,400z"/>
	<path d="M168,488v-16c0-4.418-3.582-8-8-8s-8,3.582-8,8v16c0,4.418,3.582,8,8,8S168,492.418,168,488z"/>
	<path d="M376,304c4.418,0,8-3.582,8-8v-16c0-4.418-3.582-8-8-8s-8,3.582-8,8v16C368,300.418,371.582,304,376,304z"/>
	<path d="M376,374.4c4.418,0,8-3.582,8-8v-35.2c0-4.418-3.582-8-8-8s-8,3.582-8,8v35.2C368,370.818,371.582,374.4,376,374.4z"/>
	<path d="M376,444.8c4.418,0,8-3.582,8-8v-35.2c0-4.418-3.582-8-8-8s-8,3.582-8,8v35.2C368,441.218,371.582,444.8,376,444.8z"/>
	<path d="M384,488v-16c0-4.418-3.582-8-8-8s-8,3.582-8,8v16c0,4.418,3.582,8,8,8S384,492.418,384,488z"/>
	<path d="M416,304c4.418,0,8-3.582,8-8v-16c0-4.418-3.582-8-8-8s-8,3.582-8,8v16C408,300.418,411.582,304,416,304z"/>
	<path d="M416,444.8c4.418,0,8-3.582,8-8v-35.2c0-4.418-3.582-8-8-8s-8,3.582-8,8v35.2C408,441.218,411.582,444.8,416,444.8z"/>
	<path d="M416,374.4c4.418,0,8-3.582,8-8v-35.2c0-4.418-3.582-8-8-8s-8,3.582-8,8v35.2C408,370.818,411.582,374.4,416,374.4z"/>
	<path d="M424,488v-16c0-4.418-3.582-8-8-8s-8,3.582-8,8v16c0,4.418,3.582,8,8,8S424,492.418,424,488z"/>
	<path d="M336,304c4.418,0,8-3.582,8-8v-16c0-4.418-3.582-8-8-8s-8,3.582-8,8v16C328,300.418,331.582,304,336,304z"/>
	<path d="M336,374.4c4.418,0,8-3.582,8-8v-35.2c0-4.418-3.582-8-8-8s-8,3.582-8,8v35.2C328,370.818,331.582,374.4,336,374.4z"/>
	<path d="M336,444.8c4.418,0,8-3.582,8-8v-35.2c0-4.418-3.582-8-8-8s-8,3.582-8,8v35.2C328,441.218,331.582,444.8,336,444.8z"/>
	<path d="M344,488v-16c0-4.418-3.582-8-8-8s-8,3.582-8,8v16c0,4.418,3.582,8,8,8S344,492.418,344,488z"/>
	<path d="M264,24c-4.418,0-8,3.582-8,8v16c0,4.418,3.582,8,8,8s8-3.582,8-8V32C272,27.582,268.418,24,264,24z"/>
	<path d="M264,264c-4.418,0-8,3.582-8,8v32c0,4.418,3.582,8,8,8s8-3.582,8-8v-32C272,267.582,268.418,264,264,264z"/>
	<path d="M264,200c-4.418,0-8,3.582-8,8v32c0,4.418,3.582,8,8,8s8-3.582,8-8v-32C272,203.582,268.418,200,264,200z"/>
	<path d="M264,328c-4.418,0-8,3.582-8,8v32c0,4.418,3.582,8,8,8s8-3.582,8-8v-32C272,331.582,268.418,328,264,328z"/>
	<path d="M264,72c-4.418,0-8,3.582-8,8v32c0,4.418,3.582,8,8,8s8-3.582,8-8V80C272,75.582,268.418,72,264,72z"/>
	<path d="M264,136c-4.418,0-8,3.582-8,8v32c0,4.418,3.582,8,8,8s8-3.582,8-8v-32C272,139.582,268.418,136,264,136z"/>
	<path d="M264,392c-4.418,0-8,3.582-8,8v16c0,4.418,3.582,8,8,8s8-3.582,8-8v-16C272,395.582,268.418,392,264,392z"/>
	<path d="M216,24c-4.418,0-8,3.582-8,8v16c0,4.418,3.582,8,8,8s8-3.582,8-8V32C224,27.582,220.418,24,216,24z"/>
	<path d="M216,72c-4.418,0-8,3.582-8,8v32c0,4.418,3.582,8,8,8s8-3.582,8-8V80C224,75.582,220.418,72,216,72z"/>
	<path d="M216,328c-4.418,0-8,3.582-8,8v32c0,4.418,3.582,8,8,8s8-3.582,8-8v-32C224,331.582,220.418,328,216,328z"/>
	<path d="M216,264c-4.418,0-8,3.582-8,8v32c0,4.418,3.582,8,8,8s8-3.582,8-8v-32C224,267.582,220.418,264,216,264z"/>
	<path d="M216,200c-4.418,0-8,3.582-8,8v32c0,4.418,3.582,8,8,8s8-3.582,8-8v-32C224,203.582,220.418,200,216,200z"/>
	<path d="M216,136c-4.418,0-8,3.582-8,8v32c0,4.418,3.582,8,8,8s8-3.582,8-8v-32C224,139.582,220.418,136,216,136z"/>
	<path d="M216,392c-4.418,0-8,3.582-8,8v16c0,4.418,3.582,8,8,8s8-3.582,8-8v-16C224,395.582,220.418,392,216,392z"/>
</svg>
